<?xml version="1.0" encoding="UTF-8"?>
<svg xmlns="http://www.w3.org/2000/svg" width="600" height="600" version="1.1" viewBox="0 0 600 600">
  <defs>
    <style>
      .cls-1 {
        fill: #66391b;
      }

      .cls-2 {
        fill: #f48c87;
      }
    </style>
  </defs>
  <!-- Generator: Adobe Illustrator 28.7.1, SVG Export Plug-In . SVG Version: 1.2.0 Build 142)  -->
  <g>
    <g id="_レイヤー_1" data-name="レイヤー_1">
      <g>
        <path class="cls-1" d="M458.3,282.84c-1.58,7.09-2.52,14.02-4.68,20.54-9.74,29.32-27.28,53.74-50.07,74.04-7.15,6.37-17.45,9.29-26.49,13.39-2.95,1.34-4.67,2.37-5.13,6.07-.75,6.05-2.69,11.95-4.49,19.41,9.61,0,18.92-.63,28.11.13,19.4,1.61,38.74,3.9,58.09,6.02,4.78.52,6.29,2.92,5.32,8.17-4.93,26.44-6.85,53.16-7.38,80.01-.08,3.83-.16,7.67.08,11.49.21,3.41-.47,6.08-3.39,8.29-1.27.96-2.05,2.99-2.4,4.67-.96,4.63-4.05,5.27-7.89,4.6-4.16-.72-8.38-1.33-12.4-2.57-2.14-.66-3.9-2.56-6.02-4.02-5.7,4.05-7.04,3.75-12.87-3.55-.94.49-1.93,1-2.93,1.52-3.29,1.72-5.83,1.32-9.02-1.14-2-1.54-7.15-2.08-8.58-.69-3.77,3.68-6.45,1.99-8.97-.5-2.86-2.82-5.41-3.73-9.26-1.93-1.25.58-3.88-.57-5.23-1.7-2.51-2.11-4.39-3.12-7.11-.22-2.91,3.1-5.8,2.49-8.01-1.22-2.72-4.57-6.21-4.75-9.04-.68-.83,1.19-2.73,2.66-3.76,2.42-1.45-.34-2.78-2.01-3.72-3.42-.56-.84-.26-2.24-.37-3.65-3.39-1.41-6.41-2.56-7.96,2.59-.38,1.25-2.27,2.76-3.6,2.89-5.9.61-11.84,1.06-17.76,1.01-9.25-.08-11.53-2.3-12.95-11.29-.12-.76-.36-1.93-.87-2.14-5.17-2.17-4.84-6.51-4.66-10.95,1.08-26.13,2.03-52.26,3.17-78.39.35-7.97,2.39-9.27,10.56-8.18,10.38,1.38,20.77,2.66,31.18,3.72,3.09.31,6.26-.24,9.76-.42-.56-4-1.07-7.55-1.43-10.13-8.9,0-17.32.18-25.74-.04-11.48-.31-22.42-2.74-32.27-9.05-1.15-.73-2.84-1.1-4.2-.93-19.96,2.39-39.92,4.9-60.36,7.45-.44,7.91-.92,15.01-1.1,22.11-.02.92,1.45,1.92,2.31,2.82,3.76,3.92,8.18,7.38,11.19,11.8,5.45,8,.47,19-9.01,20.9-13.42,2.68-26.49-.76-39.65-2.48-2.47-.32-4.92-.84-7.36-1.37-8.17-1.78-11.37-9.17-6.09-15.79,4.48-5.62,10.21-10.24,15.95-15.86-1.5-3.44,1.12-7.02,4.78-8.94,2.58-1.35,6.51-1.31,9.38-.42,1.58.49,2.2,4.05,3.71,7.18,1.23.11,3.82.35,7.02.64.31-6.23.6-12.16.9-18.3-.86-.28-1.62-.76-2.36-.73-14.6.61-29.27.58-43.77,2.18-10.33,1.15-20.44,4.4-30.58,6.99-2.33.59-4.45,2.16-6.54,3.47-11.96,7.49-23.86,2.47-26.25-11.37-1.62-9.35-3.21-18.75-3.9-28.19-.4-5.53.32-11.36,1.74-16.74,1.88-7.14,8.22-9.26,13.97-4.69,5.25,4.17,9.69,9.36,13.93,13.55,2.72-.9,5.69-2.5,8.68-2.53,1.07-.01,2.93,3.7,3.12,5.82.39,4.41-3.17,5.69-6.24,6.26,1.08,8.58,2.14,16.89,3.2,25.28,8.14-1.66,16.33-3.82,24.66-4.91,8.85-1.16,17.83-1.39,26.76-1.89,7.31-.4,14.64-.48,21.93-1.02,1-.07,2.54-1.97,2.68-3.15,2.52-22.5,4.71-45.03,7.32-67.51.84-7.24,2.3-14.46,4.17-21.51,1.75-6.59,5.68-8.02,11.22-3.86,11.05,8.29,21.69,17.12,32.52,25.68,2.04,1.61,4.22,3.05,5.71,4.12,8.18-7.78,15.43-15.64,23.67-22.26,9.32-7.48,19.46-13.95,29.4-20.61,2.33-1.56,3.01-3.03,3.37-5.85,1.29-10.02,2.3-20.24,5.22-29.84,4.52-14.88,22.52-21.88,38.46-15.55,11.59,4.6,22.89,9.95,34.32,14.97,4.42,1.94,8.75,4.12,13.27,5.76,1.87.68,4.16.21,6.26.27.04-1.86.58-3.89.04-5.56-4.83-14.83-6.39-30.02-3.66-45.31,3.12-17.47,8.6-34.44,18.07-49.45,10.72-16.99,26.6-27.78,46.43-32.01,3.29-.7,4.76-2.09,5.98-4.92,2.74-6.35,5.81-12.55,9.03-19.43,6.4,9.25-.35,15.9-2.29,23.12,3.53,1.46,6.77,3.05,10.19,4.07,1.17.35,2.94-.48,4.16-1.22,7.23-4.39,14.35-8.97,21.59-13.36,1.47-.89,3.3-1.21,5.25-1.89-3.74,11.58-15.17,14.37-22.47,21.54,2.36,2.68,4.34,5.38,6.81,7.51.97.83,3.26.91,4.58.39,5.97-2.35,11.92-3.97,18.26-2.29.22.53.43,1.06.65,1.59-6.06,3.07-12.11,6.13-18.65,9.44,6.65,17.69,5.88,36.16,2.91,55.55,4.32-3.32,7.87-6.36,11.74-8.94,4.7-3.13,9.69-6.85,15.63-3.56,6.05,3.35,6.42,9.68,6.73,15.74.38,7.32-3.52,12.47-9.26,16.08-5.89,3.7-12.17,6.82-18.4,9.96-5.91,2.98-10.63,6.01-11.92,13.78-2.72,16.39-6.72,32.58-10.34,48.82-2.93,13.17-15.8,18.26-26.45,9.86-8.6-6.79-16.22-14.81-24.28-22.28-1.18-1.09-2.35-2.19-3.55-3.32ZM293.64,421.06c-1.1,27.59-2.19,54.86-3.33,83.6,4.6-4.85,8.1-7.38,13.64-4.29,5.08,2.84,10.79,4.55,16.24,6.69.55.21,1.36.14,1.91-.11,5.25-2.38,10.04-2.11,14.01,2.74,6.28-4.91,12.06-5.29,18.63-.83,3.26,2.21,7.89,2.43,11.93,3.44.54.14,1.28-.22,1.85-.51,5.53-2.92,10.35,1.85,14.92,1.62,5.21-.26,10.17-2.03,15.9-.94,7.37,1.4,15.19.58,21.62,5.59.1.08.33.03.49.01,6.88-.61,13.76-1.22,21.37-1.89.22-1.09.93-3.16.99-5.25.74-23.8,1.84-47.56,5.92-71.1,1.64-9.43,1.22-9.32-8.19-11.11-23.83-4.53-47.91-5.48-72.08-5.77-4.6-.06-8.43.46-10.82,5.06-.96,1.86-2.75,3.33-4.29,4.85-3.53,3.49-6.6,3.13-9.41-1.04-1.02-1.52-1.69-3.35-2.95-4.61-1.12-1.11-2.88-2.39-4.27-2.3-12.39.88-24.61.02-36.7-2.82-2.24-.53-4.57-.66-7.37-1.04ZM481.8,135.42c-.8-.08-1.31-.28-1.7-.15-17.56,5.82-32.23,15.56-40.05,32.83-5.11,11.29-8.98,23.2-12.65,35.07-4.18,13.51-3.76,27.44.05,40.9,5.63,19.91,24.17,29.2,43.41,21.59,15.11-5.98,27.33-16.35,36.43-29.43,15.61-22.43,17.67-47.86,13.22-74.15-.39-2.31-1.56-4.49-2.28-6.5-4,.33-7.16,6.54-10.12,1.81-3.56-5.67,4.22-6.11,6.8-10.52-1.83-1.91-3.88-4.04-6.35-6.62-1.9,2.57-2.96,3.83-3.82,5.2-1.42,2.28-3.07,4.42-5.95,2.61-2.95-1.86-1.4-4.32-.14-6.53.89-1.55,1.79-3.09,2.68-4.63-7.94-4.9-10.72-3.94-13.17,4.29-.14.48-.08,1.14-.39,1.42-1.29,1.21-2.67,2.3-4.02,3.44-1.1-1.61-2.8-3.1-3.13-4.85-.33-1.73.71-3.72,1.19-5.77ZM378.11,273.62c1.32,5.56,3.35,10.21,3.34,14.87,0,8.95-1.27,17.89-1.75,26.85-.1,1.89.49,4.16,1.55,5.72,3.99,5.86,3.41,11.6-1.91,16.46-1.16,1.06-2.48,2.41-2.81,3.83-2.54,11.18-4.94,22.39-7.19,33.63-1.14,5.73,2.5,8.9,8.17,7.07,9.56-3.1,18.92-6.84,25.52-14.89,9.79-11.94,19.88-23.7,28.77-36.29,9.07-12.85,15.31-27.26,17.63-43.05,1.47-9.99.9-9.42-7.55-14.58-10.09-6.15-20.48-7.12-31.63-5.17-11.08,1.93-22.16,3.82-32.14,5.54ZM325.44,295.36c-6.13,3.98-12.69,7.86-18.85,12.31-12.87,9.31-25.43,19.21-33.52,33.17-13.69,23.61-5.18,43.72,17.22,54.07,12.55,5.79,26.74,4.71,40.39,2.83,4.9-.68,7.3-4.13,8.02-8.89,1.96-12.8,3.9-25.61,5.97-38.39.64-3.97.25-6.92-3.2-10.01-2.52-2.26-3.27-6.62-4.5-10.14-.53-1.51.08-3.43-.46-4.93-3.52-9.83-7.21-19.59-11.07-30ZM214,396.66c18.9-2.54,36.67-4.92,55.19-7.41-6.78-7.04-10.73-15.01-10.21-24.15.49-8.64,2.39-17.21,3.77-26.49-11.66-9.17-24.35-19.14-38.48-30.24-3.51,30.16-6.85,58.91-10.27,88.3ZM462.6,276.94c10.45,9.29,19.62,18.16,29.59,26.02,5.07,4,11.22.64,12.64-6,2.19-10.24,4.07-20.55,6.24-30.8,1.87-8.83,3.96-17.62,5.96-26.42-28.2,27.51-35.72,32.89-54.43,37.19ZM399.98,261.6c.03-.44.06-.89.09-1.33-12.48-5.35-24.78-11.19-37.5-15.89-9.31-3.44-20.83.91-24.83,8.62-4.66,9-5.48,18.88-5.55,29.55,22.19-9.86,44.27-17.74,67.78-20.95ZM197.99,432.5c2.63,6.08,1.34,9.42-3.52,11.04-5.58,1.85-8.3-.25-10.43-8.49-6.58,3.28-12.05,7.34-15.23,15.08,5.37,1.02,10.02,2.35,14.74,2.71,10.4.8,20.84,1.47,31.26,1.48,4.45,0,6.51-4.85,4.41-8.89-4.31-8.3-11.73-11.58-21.23-12.93ZM101.96,362.31c-.76,2.32-1.57,3.69-1.59,5.07-.11,5.6-.43,11.26.17,16.8.9,8.23,2.41,16.41,3.85,24.57.74,4.18,4.22,6.23,7.7,5.35,3.51-.89,8.91-3.36,9.33-5.84,1.41-8.37,1.61-17.15-3.04-25.1-4.82,3.23-8.58,3.41-10.9.65-2.39-2.82-1.05-6.74,4.57-12.55-3.18-2.82-6.34-5.62-10.09-8.95ZM365.2,277.54c-9.86,4.16-19.74,8.27-29.53,12.6-.85.38-1.7,2.47-1.42,3.44,2.2,7.65,4.54,15.25,7.19,22.76.41,1.16,2.79,2.61,3.84,2.34,2.04-.53,5.13-1.9,5.46-3.43,2.83-13.12,8.28-25.1,14.46-37.72ZM525.5,230.55c.31.39.63.78.94,1.18,7.28-3.9,14.74-7.49,21.77-11.8,6.8-4.17,8.19-9.3,5.65-16.2-.97-2.63-2.47-3.38-4.94-2.17-12.39,6.04-19.87,15.96-23.42,28.99ZM359.27,408.8c1.41-2.31,3.11-3.94,3.42-5.81.76-4.54,1.26-9.2,1.15-13.79-.13-5.45-2.4-6.62-7.42-4.25-2.85,1.35-5.52,3.08-8.29,4.6-5.53,3.06-6.85,7.62-3.9,13.63,11.08-4.55,12.1-4.23,15.04,5.62ZM350.76,336.33c5.08-.74,9.54-1.2,13.92-2.08,2.89-.58,5.78-1.51,8.45-2.75,3.61-1.67,3.72-4.78.2-6.53-2.17-1.08-4.82-2.06-7.12-1.82-5.58.58-11.1,1.81-16.6,2.98-2.32.49-5.18.72-4.5,4.54.65,3.65,2.49,5.7,5.65,5.66ZM369.34,342.55c-8.92-.48-18.68,11.05-19.27,22.36,6.81-7.58,14.2-13.34,19.27-22.36ZM364.93,352.04c-4.67,7.74-15.22,10.95-16.56,22.03,12.6-7.15,16.57-12.29,16.56-22.03ZM291.74,512.52c-1.02,7.68,3.04,10.67,11.96,9.23q-4.02-8.09-11.96-9.23ZM191.26,444.31c3-3.23,4.73-5.09,6.46-6.95-1.8-1.44-3.42-3.66-5.43-4.12-2.5-.56-5.89.17-5.32,3.96.31,2.02,2.21,3.79,4.3,7.11ZM188.77,416.77c-2.42,2.22-4.56,4.01-6.46,6.03-.49.52-.21,1.75-.29,2.66,2.32-.04,4.64-.06,6.97-.14.48-.02,1.07-.14,1.39-.45,1.43-1.36,2.79-2.81,4.17-4.22-1.64-1.1-3.27-2.2-5.78-3.89ZM399.71,516.55c-4.71-2.83-9.43-3.23-12.85-1.02-.85.55-1.55,1.6-1.86,2.57-.14.44.7,1.48,1.33,1.84,3.35,1.91,10.68.11,13.38-3.39ZM371.33,297.03c-4.2,4.65-8.4,9.31-12.6,13.96.37.32.73.64,1.1.97,8.84-3.57,13.28-8.53,11.5-14.93ZM429.29,520.5c2.35,5.65,6.27,6.55,13.23,3.2-2.78-5.1-6.52-6.09-13.23-3.2ZM347.8,378.5c.35.38.71.75,1.06,1.13,12.14-5.51,15.29-8.41,13-13.95-4.82,4.4-9.44,8.61-14.06,12.82ZM118.09,380.38c-2.59-2.35-4.29-3.89-5.99-5.43-1.26,1.71-3.21,3.31-3.5,5.17-.16.99,2.43,3.22,3.98,3.44,1.36.2,3.01-1.63,5.51-3.18ZM128.17,380.09c1.67-2.86,3.38-4.56,3.46-6.33.05-1.2-2.18-2.51-3.39-3.77-1.57,1.73-3.47,3.3-4.49,5.31-.27.54,2.2,2.45,4.41,4.79ZM360.39,314.78c9.98.4,13.05-2.08,11.35-8.5-3.54,2.65-6.9,5.17-11.35,8.5ZM362.87,300.15c.52.4,1.05.8,1.57,1.2,2.88-4.55,11.08-5.1,9.08-14.71-4.01,5.08-7.33,9.3-10.65,13.51ZM368.87,516.74c3.01.82,5.99,1.79,9.05,2.33.64.11,1.88-1.23,2.23-2.14.2-.5-.7-1.86-1.41-2.21-3.17-1.56-6.43-2.48-9.88,2.02ZM340.2,511.3c4.01.57,7.92,4.41,12.39.44-4.73-4.33-7.27-4.48-12.39-.44ZM406.17,515.26c-.42.81-.83,1.62-1.25,2.43,1.47,1.47,2.76,3.85,4.45,4.17,1.68.32,3.75-1.42,5.65-2.26-.05-.7-.09-1.41-.14-2.11-2.91-.75-5.81-1.49-8.72-2.24ZM442.84,532.64c-3.88.25-7.71.5-12.84.83,10.48,5.23,12.48,5.02,12.84-.83ZM305.66,506.87c-4.61-6.36-7.93-6.58-10.7-1.37,3.36.43,6.51.83,10.7,1.37ZM314.97,516.47q-4.33-1.18-5.79,5.12c1.86-.14,3.6-.28,5.47-.42.13-1.84.22-3.29.32-4.7Z"/>
        <path class="cls-1" d="M359.38,465.32c-4.6.12-8.31-2.7-8.53-6.49-.22-3.85,4.5-8.15,9-8.21,4.05-.05,7.81,3.21,7.79,6.76-.01,3.34-4.71,7.85-8.26,7.94ZM354.49,457.57c2.58,3.72,4.69,4.06,6.86,1.99.73-.7.69-2.21,1.01-3.35-2.38.41-4.75.82-7.87,1.36Z"/>
        <path class="cls-1" d="M368.65,474.24c2.82-2.86,4.78-4.86,6.74-6.85,1.61,1.78,4.38,3.45,4.57,5.38.34,3.41-2.23,6-5.88,5.74-1.5-.11-2.87-2.16-5.44-4.27Z"/>
        <path class="cls-1" d="M344.08,466.7c-.46,5.12-2.92,6.72-6.2,6.51-1.04-.07-2.83-2.34-2.73-3.47.28-3.14,1.26-6.76,5.23-6.62,1.49.05,2.89,2.74,3.7,3.58Z"/>
        <path class="cls-1" d="M337.66,491.8c-.99-.78-2-1.17-2.11-1.74-.16-.86-.01-2.19.56-2.69,2.22-1.97,4.6-3.79,7.07-5.43.61-.4,1.95-.17,2.67.26.44.26.73,1.85.43,2.13-2.75,2.55-5.65,4.94-8.62,7.48Z"/>
        <path class="cls-1" d="M362.91,438.2c1.74.45,2.67.46,3.3.9,2,1.4,3.88,2.96,5.81,4.46-2.19-.04-4.39-.05-6.58-.12-.65-.02-1.34-.1-1.92-.36-1.28-.56-2.51-1.24-3.76-1.87,1.16-1.1,2.32-2.21,3.15-3.01Z"/>
        <path class="cls-1" d="M380.66,491.31c-1.71,1.14-2.87,2.19-3.1,2.02-2.52-1.93-4.92-4.04-7.23-6.22-.06-.05,1.75-2.27,1.8-2.22,2.7,1.9,5.31,3.94,8.52,6.43Z"/>
        <path class="cls-1" d="M466.52,209.21c1.77.73,3.57,1.02,4.68,2.06,1.15,1.07,2.49,3.12,2.15,4.27-.34,1.15-2.79,2.56-4.07,2.36-2.89-.47-5.78-1.59-8.36-3.02-1.17-.65-2.52-2.91-2.21-3.98,1.21-4.09,2.88-8.08,4.8-11.9.41-.82,3.04-1.47,3.79-.95,1.08.75,2.04,2.74,1.84,4.01-.37,2.36-1.63,4.58-2.62,7.15Z"/>
        <path class="cls-1" d="M462.45,240.7c-.91.39-1.93.45-2.85.1-3.99-1.5-7.68-2.35-10.37-4.65-2.54-2.17-.93-9.28.51-8.63,2.05-.09,1.05,2.3,3.01,2.58,2.53.36,7.71,3.7,10.57,3.55,2.55-.14,5.15,1.25,4.47,4.53-.3,1.45-3.16,1.57-5.33,2.51Z"/>
        <path class="cls-1" d="M454.62,181.49c-1.17,5.32-1.85,9.59-3.15,13.66-.41,1.27-2.62,2.94-3.73,2.75-1.19-.2-3.03-2.51-2.87-3.65.63-4.54,1.69-9.07,3.14-13.42.4-1.19,2.81-2.52,4.12-2.36,1.11.14,1.97,2.33,2.49,3.02Z"/>
        <path class="cls-1" d="M494.03,194.13c-.79,4.01-1.16,7.35-2.21,10.45-.4,1.18-2.66,2.78-3.53,2.5-1.36-.44-3.3-2.45-3.16-3.56.47-3.73,1.55-7.43,2.86-10.97.33-.89,2.69-1.89,3.55-1.52,1.2.52,1.88,2.27,2.49,3.1Z"/>
      </g>
      <ellipse class="cls-2" cx="435.75" cy="204.78" rx="5.91" ry="9.79" transform="translate(66.84 514.17) rotate(-65.16)"/>
      <ellipse class="cls-2" cx="494.03" cy="229.95" rx="5.91" ry="9.79" transform="translate(142.65 646.45) rotate(-74.81)"/>
    </g>
  </g>
</svg>